<svg version="1.1" id="Layer_1" xmlns="http://www.w3.org/2000/svg" xmlns:xlink="http://www.w3.org/1999/xlink" x="0px" y="0px" viewBox="0 0 697.2 331.9" style="enable-background:new 0 0 697.2 331.9;" xml:space="preserve">
    <title>deck1</title>
    <g>
        <g id="Layer_1-2">
            <path d="M697.2,83.3L697.2,83.3L553,0l0,0L408.9,83.2h0l0,0l0,0v0.1v165.3L553,331.9l144.2-83.2l0,0L697.2,83.3z M553.1,311
                l-126.1-72.8V93.7L553,20.9l126.2,72.8v144.5L553.1,311z"></path>
            <path d="M78.4,124.2c0-26.4-12.7-40.8-38.7-40.8H0.1v165.2h39.6c26,0,38.7-14.4,38.7-40.8V124.2z M52.4,208.9c0,11.8-5,16-13.2,16
                H26V107h13.2c8.3,0,13.2,4.3,13.2,16L52.4,208.9z"></path>
            <polygon points="104.6,248.6 175.4,248.6 175.4,225 130.6,225 130.6,174.2 166.2,174.2 166.2,150.6 130.6,150.6 130.6,107 
                175.4,107 175.4,83.4 104.6,83.4 		"></polygon>
            <path d="M235.6,81c-25,0-38.2,15.1-38.2,40.6v88.7c0,25.5,13.2,40.6,38.2,40.6s38.2-15.1,38.2-40.6V187h-24.6v25.3
                c0,10.9-5.2,15.1-13,15.1s-13-4.2-13-15.1V120c0-10.9,5.2-15.3,13-15.3s13,4.5,13,15.3v19.1h24.6v-17.5
                C273.8,96.1,260.6,81,235.6,81z"></path>
            <polygon points="352.2,144 383.1,83.4 357.1,83.4 324.1,153 324.1,83.4 298.1,83.4 298.1,248.6 324.1,248.6 324.1,195.9 
                334.5,174.9 356.4,248.6 383.6,248.6 		"></polygon>
            <path d="M566.1,83.4h-17.5c-5.9,16.1-13.6,20.8-35.6,20.8v18.4h27.1v103.6H513v22.4h79.7v-22.4h-26.6V83.4z"></path>
        </g>
    </g>
    </svg>